<?xml version="1.0" encoding="UTF-8"?>
<!DOCTYPE svg PUBLIC "-//W3C//DTD SVG 1.1//EN" "http://www.w3.org/Graphics/SVG/1.1/DTD/svg11.dtd">
<!-- Creator: CorelDRAW X7 -->
<svg xmlns="http://www.w3.org/2000/svg" xml:space="preserve" width="0.6in" height="0.6in" version="1.1" style="shape-rendering:geometricPrecision; text-rendering:geometricPrecision; image-rendering:optimizeQuality; fill-rule:evenodd; clip-rule:evenodd"
viewBox="0 0 600 600"
 xmlns:xlink="http://www.w3.org/1999/xlink">
 <defs>
  <style type="text/css">
   <![CDATA[
    .fil2 {fill:#CCCCCC}
    .fil4 {fill:#FF6633}
    .fil3 {fill:#FFCC00}
    .fil0 {fill:white}
    .fil1 {fill:black;fill-rule:nonzero}
   ]]>
  </style>
 </defs>
 <g id="Layer_x0020_1">
  <metadata id="CorelCorpID_0Corel-Layer"/>
  <g id="_2452974130752">
   <rect class="fil0" width="600" height="600" rx="123" ry="123"/>
   <path class="fil1" d="M299 230c-22,-9 -32,-18 -34,-26 -3,-6 -1,-12 4,-14 5,-3 11,-3 17,0 5,3 11,8 14,17 3,-9 9,-14 14,-17 6,-3 12,-3 17,0 5,2 7,8 5,14 -3,8 -13,17 -35,26l-2 0zm-27 -28c2,5 8,12 24,19 -2,-14 -8,-21 -13,-24 -4,-2 -8,-2 -10,-1 -2,1 -2,3 -1,6zm45 -5c-5,3 -11,10 -13,24 16,-7 22,-14 24,-19 1,-3 1,-5 -1,-6 -2,-1 -6,-1 -10,1z"/>
   <path class="fil2" d="M223 281l-77 77 -38 -38c-21,-21 -21,-56 0,-77l38 -38 77 76z"/>
   <path class="fil3" d="M492 320l-38 38 -39 38c-21,22 -56,22 -77,0l-38 -38 77 -77 77 -76 38 38c21,21 21,56 0,77z"/>
   <path class="fil4" d="M377 281l-77 77 -38 38c-21,22 -56,22 -77,0l-39 -38 -19 -19c27,0 47,-9 65,-27l1 0c2,-2 4,-4 6,-6l0 0 1 -2 0 0c2,-1 4,-3 5,-5l0 0 18 -17 0 -1 39 -38c21,-21 55,-21 76,0l39 38z"/>
  </g>
 </g>
</svg>
